<svg viewBox="0 0 1415 597" fill="none" className="w-full absolute bottom-0"><g clip-path="url(#clip0_65_385)"><path d="M1413.59 91H1414.83V701.427H1413.59V91Z" fill="#7CA355" data-svg-origin="1413.5899658203125 91" transform="matrix(1,0,0,1,0,0)" style="translate: none; rotate: none; scale: none; transform-origin: 0px 0px;"></path><path d="M1406.19 74H1407.43V701.427H1406.19V74Z" fill="#7CA355" data-svg-origin="1406.18994140625 74" transform="matrix(1,0,0,1,0,0)" style="translate: none; rotate: none; scale: none; transform-origin: 0px 0px;"></path><path d="M1413.59 92H1414.83V702.427H1413.59V92Z" fill="#7CA355" data-svg-origin="1413.5899658203125 92" transform="matrix(1,0,0,1,0,0)" style="translate: none; rotate: none; scale: none; transform-origin: 0px 0px;"></path><path d="M1406.19 74H1407.43V701.427H1406.19V74Z" fill="#7CA355" data-svg-origin="1406.18994140625 74" transform="matrix(1,0,0,1,0,0)" style="translate: none; rotate: none; scale: none; transform-origin: 0px 0px;"></path><path d="M1398.79 61V701.427H1400.03V61H1398.79Z" fill="#7CA355" data-svg-origin="1398.7900390625 61" transform="matrix(1,0,0,1,0,0)" style="translate: none; rotate: none; scale: none; transform-origin: 0px 0px;"></path><path d="M1391.39 48H1392.63V701.427H1391.39V48Z" fill="#7CA355" data-svg-origin="1391.3900146484375 48" transform="matrix(1,0,0,1,0,0)" style="translate: none; rotate: none; scale: none; transform-origin: 0px 0px;"></path><path d="M1383.99 36V701.427H1385.22V36H1383.99Z" fill="#7CA355" data-svg-origin="1383.989990234375 36" transform="matrix(1,0,0,1,0,0)" style="translate: none; rotate: none; scale: none; transform-origin: 0px 0px;"></path><path d="M1376.59 26H1377.82V701.427H1376.59V26Z" fill="#7CA355" data-svg-origin="1376.5899658203125 26" transform="matrix(1,0,0,1,0,0)" style="translate: none; rotate: none; scale: none; transform-origin: 0px 0px;"></path><path d="M1369.19 16V701.427H1370.42V16H1369.19Z" fill="#7CA355" data-svg-origin="1369.18994140625 16" transform="matrix(1,0,0,1,0,0)" style="translate: none; rotate: none; scale: none; transform-origin: 0px 0px;"></path><path d="M1361.79 10H1363.02V701.427H1361.79V10Z" fill="#7CA355" data-svg-origin="1361.7900390625 10" transform="matrix(1,0,0,1,0,0)" style="translate: none; rotate: none; scale: none; transform-origin: 0px 0px;"></path><path d="M1354.39 3V701.427H1355.62V3H1354.39Z" fill="#7CA355" data-svg-origin="1354.3900146484375 3" transform="matrix(1,0,0,1,0,0)" style="translate: none; rotate: none; scale: none; transform-origin: 0px 0px;"></path><path d="M1346.99 0H1348.22V701.427H1346.99V0Z" fill="#7CA355" data-svg-origin="1346.989990234375 0" transform="matrix(1,0,0,1,0,0)" style="translate: none; rotate: none; scale: none; transform-origin: 0px 0px;"></path><path d="M1339.58 0V701.427H1340.82V0H1339.58Z" fill="#7CA355" data-svg-origin="1339.5799560546875 0" transform="matrix(1,0,0,1,0,0)" style="translate: none; rotate: none; scale: none; transform-origin: 0px 0px;"></path><path d="M1332.18 2H1333.42V701.427H1332.18V2Z" fill="#7CA355" data-svg-origin="1332.1800537109375 2" transform="matrix(1,0,0,1,0,0)" style="translate: none; rotate: none; scale: none; transform-origin: 0px 0px;"></path><path d="M1332.18 2H1333.42V701.427H1332.18V2Z" fill="#7CA355" data-svg-origin="1332.1800537109375 2" transform="matrix(1,0,0,1,0,0)" style="translate: none; rotate: none; scale: none; transform-origin: 0px 0px;"></path><path d="M1324.78 7V701.427H1326.02V7H1324.78Z" fill="#7CA355" data-svg-origin="1324.780029296875 7" transform="matrix(1,0,0,1,0,0)" style="translate: none; rotate: none; scale: none; transform-origin: 0px 0px;"></path><path d="M1324.78 7V701.427H1326.02V7H1324.78Z" fill="#7CA355" data-svg-origin="1324.780029296875 7" transform="matrix(1,0,0,1,0,0)" style="translate: none; rotate: none; scale: none; transform-origin: 0px 0px;"></path><path d="M1317.38 14H1318.62V701.427H1317.38V14Z" fill="#7CA355" data-svg-origin="1317.3800048828125 14" transform="matrix(1,0,0,1,0,0)" style="translate: none; rotate: none; scale: none; transform-origin: 0px 0px;"></path><path d="M1317.38 14H1318.62V701.427H1317.38V14Z" fill="#7CA355" data-svg-origin="1317.3800048828125 14" transform="matrix(1,0,0,1,0,0)" style="translate: none; rotate: none; scale: none; transform-origin: 0px 0px;"></path><path d="M1309.98 24V701.427H1311.21V24H1309.98Z" fill="#7CA355" data-svg-origin="1309.97998046875 24" transform="matrix(1,0,0,1,0,0)" style="translate: none; rotate: none; scale: none; transform-origin: 0px 0px;"></path><path d="M1309.98 24V701.427H1311.21V24H1309.98Z" fill="#7CA355" data-svg-origin="1309.97998046875 24" transform="matrix(1,0,0,1,0,0)" style="translate: none; rotate: none; scale: none; transform-origin: 0px 0px;"></path><path d="M1302.58 37H1303.81V701.427H1302.58V37Z" fill="#7CA355" data-svg-origin="1302.5799560546875 37" transform="matrix(1,0,0,1,0,0)" style="translate: none; rotate: none; scale: none; transform-origin: 0px 0px;"></path><path d="M1302.58 37H1303.81V701.427H1302.58V37Z" fill="#7CA355" data-svg-origin="1302.5799560546875 37" transform="matrix(1,0,0,1,0,0)" style="translate: none; rotate: none; scale: none; transform-origin: 0px 0px;"></path><path d="M1295.18 52V701.427H1296.41V52H1295.18Z" fill="#7CA355" data-svg-origin="1295.1800537109375 52" transform="matrix(1,0,0,1,0,0)" style="translate: none; rotate: none; scale: none; transform-origin: 0px 0px;"></path><path d="M1295.18 52V701.427H1296.41V52H1295.18Z" fill="#7CA355" data-svg-origin="1295.1800537109375 52" transform="matrix(1,0,0,1,0,0)" style="translate: none; rotate: none; scale: none; transform-origin: 0px 0px;"></path><path d="M1287.78 70H1289.01V701.427H1287.78V70Z" fill="#7CA355" data-svg-origin="1287.780029296875 70" transform="matrix(1,0,0,1,0,0)" style="translate: none; rotate: none; scale: none; transform-origin: 0px 0px;"></path><path d="M1287.78 70H1289.01V701.427H1287.78V70Z" fill="#7CA355" data-svg-origin="1287.780029296875 70" transform="matrix(1,0,0,1,0,0)" style="translate: none; rotate: none; scale: none; transform-origin: 0px 0px;"></path><path d="M1280.38 90V701.427H1281.61V90H1280.38Z" fill="#7CA355" data-svg-origin="1280.3800048828125 90" transform="matrix(1,0,0,1,0,0)" style="translate: none; rotate: none; scale: none; transform-origin: 0px 0px;"></path><path d="M1280.38 90V701.427H1281.61V90H1280.38Z" fill="#7CA355" data-svg-origin="1280.3800048828125 90" transform="matrix(1,0,0,1,0,0)" style="translate: none; rotate: none; scale: none; transform-origin: 0px 0px;"></path><path d="M1272.98 113H1274.21V701.427H1272.98V113Z" fill="#7CA355" data-svg-origin="1272.97998046875 113" transform="matrix(1,0,0,1,0,0)" style="translate: none; rotate: none; scale: none; transform-origin: 0px 0px;"></path><path d="M1272.98 113H1274.21V701.427H1272.98V113Z" fill="#7CA355" data-svg-origin="1272.97998046875 113" transform="matrix(1,0,0,1,0,0)" style="translate: none; rotate: none; scale: none; transform-origin: 0px 0px;"></path><path d="M1265.57 138V701.427H1266.81V138H1265.57Z" fill="#7CA355" data-svg-origin="1265.5699462890625 138" transform="matrix(1,0,0,1,0,0)" style="translate: none; rotate: none; scale: none; transform-origin: 0px 0px;"></path><path d="M1265.57 138V701.427H1266.81V138H1265.57Z" fill="#7CA355" data-svg-origin="1265.5699462890625 138" transform="matrix(1,0,0,1,0,0)" style="translate: none; rotate: none; scale: none; transform-origin: 0px 0px;"></path><path d="M1258.17 164H1259.41V701.427H1258.17V164Z" fill="#7CA355" data-svg-origin="1258.1700439453125 164" transform="matrix(1,0,0,1,0,0)" style="translate: none; rotate: none; scale: none; transform-origin: 0px 0px;"></path><path d="M1258.17 164H1259.41V701.427H1258.17V164Z" fill="#7CA355" data-svg-origin="1258.1700439453125 164" transform="matrix(1,0,0,1,0,0)" style="translate: none; rotate: none; scale: none; transform-origin: 0px 0px;"></path><path d="M1250.77 190V701.427H1252.01V190H1250.77Z" fill="#7CA355" data-svg-origin="1250.77001953125 190" transform="matrix(1,0,0,1,0,0)" style="translate: none; rotate: none; scale: none; transform-origin: 0px 0px;"></path><path d="M1250.77 190V701.427H1252.01V190H1250.77Z" fill="#7CA355" data-svg-origin="1250.77001953125 190" transform="matrix(1,0,0,1,0,0)" style="translate: none; rotate: none; scale: none; transform-origin: 0px 0px;"></path><path d="M1243.37 215H1244.6V701.427H1243.37V215Z" fill="#7CA355" data-svg-origin="1243.3699951171875 215" transform="matrix(1,0,0,1,0,0)" style="translate: none; rotate: none; scale: none; transform-origin: 0px 0px;"></path><path d="M1243.37 215H1244.6V701.427H1243.37V215Z" fill="#7CA355" data-svg-origin="1243.3699951171875 215" transform="matrix(1,0,0,1,0,0)" style="translate: none; rotate: none; scale: none; transform-origin: 0px 0px;"></path><path d="M1235.97 237V701.427H1237.2V237H1235.97Z" fill="#7CA355" data-svg-origin="1235.969970703125 237" transform="matrix(1,0,0,1,0,0)" style="translate: none; rotate: none; scale: none; transform-origin: 0px 0px;"></path><path d="M1235.97 237V701.427H1237.2V237H1235.97Z" fill="#7CA355" data-svg-origin="1235.969970703125 237" transform="matrix(1,0,0,1,0,0)" style="translate: none; rotate: none; scale: none; transform-origin: 0px 0px;"></path><path d="M1228.57 256H1229.8V701.427H1228.57V256Z" fill="#7CA355" data-svg-origin="1228.5699462890625 256" transform="matrix(1,0,0,1,0,0)" style="translate: none; rotate: none; scale: none; transform-origin: 0px 0px;"></path><path d="M1228.57 256H1229.8V701.427H1228.57V256Z" fill="#7CA355" data-svg-origin="1228.5699462890625 256" transform="matrix(1,0,0,1,0,0)" style="translate: none; rotate: none; scale: none; transform-origin: 0px 0px;"></path><path d="M1221.17 271V701.427H1222.4V271H1221.17Z" fill="#7CA355" data-svg-origin="1221.1700439453125 271" transform="matrix(1,0,0,1,0,0)" style="translate: none; rotate: none; scale: none; transform-origin: 0px 0px;"></path><path d="M1221.17 271V701.427H1222.4V271H1221.17Z" fill="#7CA355" data-svg-origin="1221.1700439453125 271" transform="matrix(1,0,0,1,0,0)" style="translate: none; rotate: none; scale: none; transform-origin: 0px 0px;"></path><path d="M1213.77 280H1215V701.427H1213.77V280Z" fill="#7CA355" data-svg-origin="1213.77001953125 280" transform="matrix(1,0,0,1,0,0)" style="translate: none; rotate: none; scale: none; transform-origin: 0px 0px;"></path><path d="M1213.77 280H1215V701.427H1213.77V280Z" fill="#7CA355" data-svg-origin="1213.77001953125 280" transform="matrix(1,0,0,1,0,0)" style="translate: none; rotate: none; scale: none; transform-origin: 0px 0px;"></path><path d="M1206.37 282V701.427H1207.6V282H1206.37Z" fill="#7CA355" data-svg-origin="1206.3699951171875 282" transform="matrix(1,0,0,1,0,0)" style="translate: none; rotate: none; scale: none; transform-origin: 0px 0px;"></path><path d="M1206.37 282V701.427H1207.6V282H1206.37Z" fill="#7CA355" data-svg-origin="1206.3699951171875 282" transform="matrix(1,0,0,1,0,0)" style="translate: none; rotate: none; scale: none; transform-origin: 0px 0px;"></path><path d="M1198.97 277H1200.2V701.427H1198.97V277Z" fill="#7CA355" data-svg-origin="1198.969970703125 277" transform="matrix(1,0,0,1,0,0)" style="translate: none; rotate: none; scale: none; transform-origin: 0px 0px;"></path><path d="M1198.97 277H1200.2V701.427H1198.97V277Z" fill="#7CA355" data-svg-origin="1198.969970703125 277" transform="matrix(1,0,0,1,0,0)" style="translate: none; rotate: none; scale: none; transform-origin: 0px 0px;"></path><path d="M1191.56 265V701.427H1192.8V265H1191.56Z" fill="#7CA355" data-svg-origin="1191.56005859375 265" transform="matrix(1,0,0,1,0,0)" style="translate: none; rotate: none; scale: none; transform-origin: 0px 0px;"></path><path d="M1191.56 265V701.427H1192.8V265H1191.56Z" fill="#7CA355" data-svg-origin="1191.56005859375 265" transform="matrix(1,0,0,1,0,0)" style="translate: none; rotate: none; scale: none; transform-origin: 0px 0px;"></path><path d="M1184.16 246H1185.4V701.427H1184.16V246Z" fill="#7CA355" data-svg-origin="1184.1600341796875 246" transform="matrix(1,0,0,1,0,0)" style="translate: none; rotate: none; scale: none; transform-origin: 0px 0px;"></path><path d="M1184.16 246H1185.4V701.427H1184.16V246Z" fill="#7CA355" data-svg-origin="1184.1600341796875 246" transform="matrix(1,0,0,1,0,0)" style="translate: none; rotate: none; scale: none; transform-origin: 0px 0px;"></path><path d="M1176.76 224V701.427H1178V224H1176.76Z" fill="#7CA355" data-svg-origin="1176.760009765625 224" transform="matrix(1,0,0,1,0,0)" style="translate: none; rotate: none; scale: none; transform-origin: 0px 0px;"></path><path d="M1176.76 224V701.427H1178V224H1176.76Z" fill="#7CA355" data-svg-origin="1176.760009765625 224" transform="matrix(1,0,0,1,0,0)" style="translate: none; rotate: none; scale: none; transform-origin: 0px 0px;"></path><path d="M1169.36 198H1170.59V701.427H1169.36V198Z" fill="#7CA355" data-svg-origin="1169.3599853515625 198" transform="matrix(1,0,0,1,0,0)" style="translate: none; rotate: none; scale: none; transform-origin: 0px 0px;"></path><path d="M1169.36 198H1170.59V701.427H1169.36V198Z" fill="#7CA355" data-svg-origin="1169.3599853515625 198" transform="matrix(1,0,0,1,0,0)" style="translate: none; rotate: none; scale: none; transform-origin: 0px 0px;"></path><path d="M1161.96 171V701.427H1163.19V171H1161.96Z" fill="#7CA355" data-svg-origin="1161.9599609375 171" transform="matrix(1,0,0,1,0,0)" style="translate: none; rotate: none; scale: none; transform-origin: 0px 0px;"></path><path d="M1161.96 171V701.427H1163.19V171H1161.96Z" fill="#7CA355" data-svg-origin="1161.9599609375 171" transform="matrix(1,0,0,1,0,0)" style="translate: none; rotate: none; scale: none; transform-origin: 0px 0px;"></path><path d="M1154.56 146H1155.79V701.427H1154.56V146Z" fill="#7CA355" data-svg-origin="1154.56005859375 146" transform="matrix(1,0,0,1,0,0)" style="translate: none; rotate: none; scale: none; transform-origin: 0px 0px;"></path><path d="M1147.16 122V701.427H1148.39V122H1147.16Z" fill="#7CA355" data-svg-origin="1147.1600341796875 122" transform="matrix(1,0,0,1,0,0)" style="translate: none; rotate: none; scale: none; transform-origin: 0px 0px;"></path><path d="M1139.76 102H1140.99V701.427H1139.76V102Z" fill="#7CA355" data-svg-origin="1139.760009765625 102" transform="matrix(1,0,0,1,0,0)" style="translate: none; rotate: none; scale: none; transform-origin: 0px 0px;"></path><path d="M1132.36 87V701.427H1133.59V87H1132.36Z" fill="#7CA355" data-svg-origin="1132.3599853515625 87" transform="matrix(1,0,0,1,0,0)" style="translate: none; rotate: none; scale: none; transform-origin: 0px 0px;"></path><path d="M1132.36 87V701.427H1133.59V87H1132.36Z" fill="#7CA355" data-svg-origin="1132.3599853515625 87" transform="matrix(1,0,0,1,0,0)" style="translate: none; rotate: none; scale: none; transform-origin: 0px 0px;"></path><path d="M1124.96 79H1126.19V701.427H1124.96V79Z" fill="#7CA355" data-svg-origin="1124.9599609375 79" transform="matrix(1,0,0,1,0,0)" style="translate: none; rotate: none; scale: none; transform-origin: 0px 0px;"></path><path d="M1117.55 78V701.427H1118.79V78H1117.55Z" fill="#7CA355" data-svg-origin="1117.550048828125 78" transform="matrix(1,0,0,1,0,0)" style="translate: none; rotate: none; scale: none; transform-origin: 0px 0px;"></path><path d="M1110.15 82H1111.39V701.427H1110.15V82Z" fill="#7CA355" data-svg-origin="1110.1500244140625 82" transform="matrix(1,0,0,1,0,0)" style="translate: none; rotate: none; scale: none; transform-origin: 0px 0px;"></path><path d="M1102.75 91V701.427H1103.99V91H1102.75Z" fill="#7CA355" data-svg-origin="1102.75 91" transform="matrix(1,0,0,1,0,0)" style="translate: none; rotate: none; scale: none; transform-origin: 0px 0px;"></path><path d="M1095.35 102H1096.58V701.427H1095.35V102Z" fill="#7CA355" data-svg-origin="1095.3499755859375 102" transform="matrix(1,0,0,1,0,0)" style="translate: none; rotate: none; scale: none; transform-origin: 0px 0px;"></path><path d="M1087.95 116V701.427H1089.18V116H1087.95Z" fill="#7CA355" data-svg-origin="1087.949951171875 116" transform="matrix(1,0,0,1,0,0)" style="translate: none; rotate: none; scale: none; transform-origin: 0px 0px;"></path><path d="M1080.55 131H1081.78V701.427H1080.55V131Z" fill="#7CA355" data-svg-origin="1080.550048828125 131" transform="matrix(1,0,0,1,0,0)" style="translate: none; rotate: none; scale: none; transform-origin: 0px 0px;"></path><path d="M1073.15 144V701.427H1074.38V144H1073.15Z" fill="#7CA355" data-svg-origin="1073.1500244140625 144" transform="matrix(1,0,0,1,0,0)" style="translate: none; rotate: none; scale: none; transform-origin: 0px 0px;"></path><path d="M1065.75 157H1066.98V701.427H1065.75V157Z" fill="#7CA355" data-svg-origin="1065.75 157" transform="matrix(1,0,0,1,0,0)" style="translate: none; rotate: none; scale: none; transform-origin: 0px 0px;"></path><path d="M1058.35 168V701.427H1059.58V168H1058.35Z" fill="#7CA355" data-svg-origin="1058.3499755859375 168" transform="matrix(1,0,0,1,0,0)" style="translate: none; rotate: none; scale: none; transform-origin: 0px 0px;"></path><path d="M1050.94 176H1052.18V701.427H1050.94V176Z" fill="#7CA355" data-svg-origin="1050.93994140625 176" transform="matrix(1,0,0,1,0,0)" style="translate: none; rotate: none; scale: none; transform-origin: 0px 0px;"></path><path d="M1043.54 181V701.427H1044.78V181H1043.54Z" fill="#7CA355" data-svg-origin="1043.5400390625 181" transform="matrix(1,0,0,1,0,0)" style="translate: none; rotate: none; scale: none; transform-origin: 0px 0px;"></path><path d="M1036.14 185H1037.38V701.427H1036.14V185Z" fill="#7CA355" data-svg-origin="1036.1400146484375 185" transform="matrix(1,0,0,1,0,0)" style="translate: none; rotate: none; scale: none; transform-origin: 0px 0px;"></path><path d="M1028.74 186V701.427H1029.98V186H1028.74Z" fill="#7CA355" data-svg-origin="1028.739990234375 186" transform="matrix(1,0,0,1,0,0)" style="translate: none; rotate: none; scale: none; transform-origin: 0px 0px;"></path><path d="M1021.34 185H1022.57V701.427H1021.34V185Z" fill="#7CA355" data-svg-origin="1021.3400268554688 185" transform="matrix(1,0,0,1,0,0)" style="translate: none; rotate: none; scale: none; transform-origin: 0px 0px;"></path><path d="M1013.94 184V701.427H1015.17V184H1013.94Z" fill="#7CA355" data-svg-origin="1013.9400024414062 184" transform="matrix(1,0,0,1,0,0)" style="translate: none; rotate: none; scale: none; transform-origin: 0px 0px;"></path><path d="M1006.54 179H1007.77V701.427H1006.54V179Z" fill="#7CA355" data-svg-origin="1006.5399780273438 179" transform="matrix(1,0,0,1,0,0)" style="translate: none; rotate: none; scale: none; transform-origin: 0px 0px;"></path><path d="M999.138 174V701.427H1000.37V174H999.138Z" fill="#7CA355" data-svg-origin="999.1380004882812 174" transform="matrix(1,0,0,1,0,0)" style="translate: none; rotate: none; scale: none; transform-origin: 0px 0px;"></path><path d="M991.737 169H992.97V701.427H991.737V169Z" fill="#7CA355" data-svg-origin="991.7369995117188 169" transform="matrix(1,0,0,1,0,0)" style="translate: none; rotate: none; scale: none; transform-origin: 0px 0px;"></path><path d="M984.336 162V701.427H985.569V162H984.336Z" fill="#7CA355" data-svg-origin="984.3359985351562 162" transform="matrix(1,0,0,1,0,0)" style="translate: none; rotate: none; scale: none; transform-origin: 0px 0px;"></path><path d="M976.935 156H978.168V701.427H976.935V156Z" fill="#7CA355" data-svg-origin="976.9349975585938 156" transform="matrix(1,0,0,1,0,0)" style="translate: none; rotate: none; scale: none; transform-origin: 0px 0px;"></path><path d="M969.534 149V701.427H970.767V149H969.534Z" fill="#7CA355" data-svg-origin="969.5339965820312 149" transform="matrix(1,0,0,1,0,0)" style="translate: none; rotate: none; scale: none; transform-origin: 0px 0px;"></path><path d="M962.133 145H963.366V701.427H962.133V145Z" fill="#7CA355" data-svg-origin="962.1329956054688 145" transform="matrix(1,0,0,1,0,0)" style="translate: none; rotate: none; scale: none; transform-origin: 0px 0px;"></path><path d="M954.732 142V701.427H955.965V142H954.732Z" fill="#7CA355" data-svg-origin="954.7319946289062 142" transform="matrix(1,0,0,1,0,0)" style="translate: none; rotate: none; scale: none; transform-origin: 0px 0px;"></path><path d="M947.331 142H948.564V701.427H947.331V142Z" fill="#7CA355" data-svg-origin="947.3309936523438 142" transform="matrix(1,0,0,1,0,0)" style="translate: none; rotate: none; scale: none; transform-origin: 0px 0px;"></path><path d="M939.93 146V701.427H941.163V146H939.93Z" fill="#7CA355" data-svg-origin="939.9299926757812 146" transform="matrix(1,0,0,1,0,0)" style="translate: none; rotate: none; scale: none; transform-origin: 0px 0px;"></path><path d="M932.529 155H933.762V701.427H932.529V155Z" fill="#7CA355" data-svg-origin="932.5289916992188 155" transform="matrix(1,0,0,1,0,0)" style="translate: none; rotate: none; scale: none; transform-origin: 0px 0px;"></path><path d="M925.128 168V701.427H926.361V168H925.128Z" fill="#7CA355" data-svg-origin="925.1279907226562 168" transform="matrix(1,0,0,1,0,0)" style="translate: none; rotate: none; scale: none; transform-origin: 0px 0px;"></path><path d="M917.727 187H918.96V701.427H917.727V187Z" fill="#7CA355" data-svg-origin="917.7269897460938 187" transform="matrix(1,0,0,1,0,0)" style="translate: none; rotate: none; scale: none; transform-origin: 0px 0px;"></path><path d="M910.326 213V701.427H911.559V213H910.326Z" fill="#7CA355" data-svg-origin="910.3259887695312 213" transform="matrix(1,0,0,1,0,0)" style="translate: none; rotate: none; scale: none; transform-origin: 0px 0px;"></path><path d="M902.925 242H904.158V701.427H902.925V242Z" fill="#7CA355" data-svg-origin="902.9249877929688 242" transform="matrix(1,0,0,1,0,0)" style="translate: none; rotate: none; scale: none; transform-origin: 0px 0px;"></path><path d="M895.523 275V701.427H896.757V275H895.523Z" fill="#7CA355" data-svg-origin="895.5230102539062 275" transform="matrix(1,0,0,1,0,0)" style="translate: none; rotate: none; scale: none; transform-origin: 0px 0px;"></path><path d="M888.122 308H889.356V701.427H888.122V308Z" fill="#7CA355" data-svg-origin="888.1220092773438 308" transform="matrix(1,0,0,1,0,0)" style="translate: none; rotate: none; scale: none; transform-origin: 0px 0px;"></path><path d="M880.721 341V701.427H881.955V341H880.721Z" fill="#7CA355" data-svg-origin="880.7210083007812 341" transform="matrix(1,0,0,1,0,0)" style="translate: none; rotate: none; scale: none; transform-origin: 0px 0px;"></path><path d="M873.32 373H874.554V701.427H873.32V373Z" fill="#7CA355" data-svg-origin="873.3200073242188 373" transform="matrix(1,0,0,1,0,0)" style="translate: none; rotate: none; scale: none; transform-origin: 0px 0px;"></path><path d="M865.919 401V701.427H867.153V401H865.919Z" fill="#7CA355" data-svg-origin="865.9190063476562 401" transform="matrix(1,0,0,1,0,0)" style="translate: none; rotate: none; scale: none; transform-origin: 0px 0px;"></path><path d="M858.518 424H859.752V701.427H858.518V424Z" fill="#7CA355" data-svg-origin="858.5180053710938 424" transform="matrix(1,0,0,1,0,0)" style="translate: none; rotate: none; scale: none; transform-origin: 0px 0px;"></path><path d="M851.117 441V701.427H852.351V441H851.117Z" fill="#7CA355" data-svg-origin="851.1170043945312 441" transform="matrix(1,0,0,1,0,0)" style="translate: none; rotate: none; scale: none; transform-origin: 0px 0px;"></path><path d="M843.716 451H844.95V701.427H843.716V451Z" fill="#7CA355" data-svg-origin="843.7160034179688 451" transform="matrix(1,0,0,1,0,0)" style="translate: none; rotate: none; scale: none; transform-origin: 0px 0px;"></path><path d="M836.315 453V701.427H837.549V453H836.315Z" fill="#7CA355" data-svg-origin="836.3150024414062 453" transform="matrix(1,0,0,1,0,0)" style="translate: none; rotate: none; scale: none; transform-origin: 0px 0px;"></path><path d="M828.914 450H830.104L830.148 450.03V701.427H828.914V450Z" fill="#7CA355" data-svg-origin="828.9140014648438 450" transform="matrix(1,0,0,1,0,0)" style="translate: none; rotate: none; scale: none; transform-origin: 0px 0px;"></path><path d="M821.513 443V701.427H822.747V443.068L822.689 443H821.513Z" fill="#7CA355" data-svg-origin="821.5130004882812 443" transform="matrix(1,0,0,1,0,0)" style="translate: none; rotate: none; scale: none; transform-origin: 0px 0px;"></path><path d="M814.112 434H815.346V701.427H814.112V434Z" fill="#7CA355" data-svg-origin="814.1119995117188 434" transform="matrix(1,0,0,1,0,0)" style="translate: none; rotate: none; scale: none; transform-origin: 0px 0px;"></path><path d="M806.711 423V701.427H807.945V423H806.711Z" fill="#7CA355" data-svg-origin="806.7109985351562 423" transform="matrix(1,0,0,1,0,0)" style="translate: none; rotate: none; scale: none; transform-origin: 0px 0px;"></path><path d="M799.31 412H800.544V701.427H799.31V412Z" fill="#7CA355" data-svg-origin="799.3099975585938 412" transform="matrix(1,0,0,1,0,0)" style="translate: none; rotate: none; scale: none; transform-origin: 0px 0px;"></path><path d="M791.909 402V701.427H793.143V402H791.909Z" fill="#7CA355" data-svg-origin="791.9089965820312 402" transform="matrix(1,0,0,1,0,0)" style="translate: none; rotate: none; scale: none; transform-origin: 0px 0px;"></path><path d="M784.508 395H785.742V701.427H784.508V395Z" fill="#7CA355" data-svg-origin="784.5079956054688 395" transform="matrix(1,0,0,1,0,0)" style="translate: none; rotate: none; scale: none; transform-origin: 0px 0px;"></path><path d="M777.107 394V701.427H778.341V394H777.107Z" fill="#7CA355" data-svg-origin="777.1069946289062 394" transform="matrix(1,0,0,1,0,0)" style="translate: none; rotate: none; scale: none; transform-origin: 0px 0px;"></path><path d="M769.706 399H770.94V701.427H769.706V399Z" fill="#7CA355" data-svg-origin="769.7059936523438 399" transform="matrix(1,0,0,1,0,0)" style="translate: none; rotate: none; scale: none; transform-origin: 0px 0px;"></path><path d="M762.305 409V701.427H763.539V409H762.305Z" fill="#7CA355" data-svg-origin="762.3049926757812 409" transform="matrix(1,0,0,1,0,0)" style="translate: none; rotate: none; scale: none; transform-origin: 0px 0px;"></path><path d="M754.904 423H756.138V701.427H754.904V423Z" fill="#7CA355" data-svg-origin="754.9039916992188 423" transform="matrix(1,0,0,1,0,0)" style="translate: none; rotate: none; scale: none; transform-origin: 0px 0px;"></path><path d="M747.503 440V701.427H748.737V440H747.503Z" fill="#7CA355" data-svg-origin="747.5029907226562 440" transform="matrix(1,0,0,1,0,0)" style="translate: none; rotate: none; scale: none; transform-origin: 0px 0px;"></path><path d="M740.102 458H741.336V701.427H740.102V458Z" fill="#7CA355" data-svg-origin="740.1019897460938 458" transform="matrix(1,0,0,1,0,0)" style="translate: none; rotate: none; scale: none; transform-origin: 0px 0px;"></path><path d="M732.701 478V701.427H733.935V478H732.701Z" fill="#7CA355" data-svg-origin="732.7009887695312 478" transform="matrix(1,0,0,1,0,0)" style="translate: none; rotate: none; scale: none; transform-origin: 0px 0px;"></path><path d="M725.3 496H726.534V701.427H725.3V496Z" fill="#7CA355" data-svg-origin="725.2999877929688 496" transform="matrix(1,0,0,1,0,0)" style="translate: none; rotate: none; scale: none; transform-origin: 0px 0px;"></path><path d="M717.899 514V701.427H719.133V514H717.899Z" fill="#7CA355" data-svg-origin="717.8989868164062 514" transform="matrix(1,0,0,1,0,0)" style="translate: none; rotate: none; scale: none; transform-origin: 0px 0px;"></path><path d="M710.498 529H711.732V701.427H710.498V529Z" fill="#7CA355" data-svg-origin="710.4979858398438 529" transform="matrix(1,0,0,1,0,0)" style="translate: none; rotate: none; scale: none; transform-origin: 0px 0px;"></path><path d="M703.097 540V701.427H704.331V540H703.097Z" fill="#7CA355" data-svg-origin="703.0969848632812 540" transform="matrix(1,0,0,1,0,0)" style="translate: none; rotate: none; scale: none; transform-origin: 0px 0px;"></path><path d="M695.696 548H696.929V701.427H695.696V548Z" fill="#7CA355" data-svg-origin="695.6959838867188 548" transform="matrix(1,0,0,1,0,0)" style="translate: none; rotate: none; scale: none; transform-origin: 0px 0px;"></path><path d="M688.295 551V701.427H689.528V551H688.295Z" fill="#7CA355" data-svg-origin="688.2949829101562 551" transform="matrix(1,0,0,1,0,0)" style="translate: none; rotate: none; scale: none; transform-origin: 0px 0px;"></path><path d="M680.894 552H682.127V701.427H680.894V552Z" fill="#7CA355" data-svg-origin="680.8939819335938 552" transform="matrix(1,0,0,1,0,0)" style="translate: none; rotate: none; scale: none; transform-origin: 0px 0px;"></path><path d="M673.493 550V701.427H674.726V550H673.493Z" fill="#7CA355" data-svg-origin="673.4929809570312 550" transform="matrix(1,0,0,1,0,0)" style="translate: none; rotate: none; scale: none; transform-origin: 0px 0px;"></path><path d="M666.092 546H667.325V701.427H666.092V546Z" fill="#7CA355" data-svg-origin="666.0919799804688 546" transform="matrix(1,0,0,1,0,0)" style="translate: none; rotate: none; scale: none; transform-origin: 0px 0px;"></path><path d="M658.691 539V701.427H659.924V539H658.691Z" fill="#7CA355" data-svg-origin="658.6909790039062 539" transform="matrix(1,0,0,1,0,0)" style="translate: none; rotate: none; scale: none; transform-origin: 0px 0px;"></path><path d="M651.29 531H652.523V701.427H651.29V531Z" fill="#7CA355" data-svg-origin="651.2899780273438 531" transform="matrix(1,0,0,1,0,0)" style="translate: none; rotate: none; scale: none; transform-origin: 0px 0px;"></path><path d="M643.889 521V701.427H645.122V521H643.889Z" fill="#7CA355" data-svg-origin="643.8889770507812 521" transform="matrix(1,0,0,1,0,0)" style="translate: none; rotate: none; scale: none; transform-origin: 0px 0px;"></path><path d="M636.488 510H637.721V701.427H636.488V510Z" fill="#7CA355" data-svg-origin="636.4879760742188 510" transform="matrix(1,0,0,1,0,0)" style="translate: none; rotate: none; scale: none; transform-origin: 0px 0px;"></path><path d="M629.087 498V701.427H630.32V498H629.087Z" fill="#7CA355" data-svg-origin="629.0869750976562 498" transform="matrix(1,0,0,1,0,0)" style="translate: none; rotate: none; scale: none; transform-origin: 0px 0px;"></path><path d="M621.686 486H622.919V701.427H621.686V486Z" fill="#7CA355" data-svg-origin="621.6859741210938 486" transform="matrix(1,0,0,1,0,0)" style="translate: none; rotate: none; scale: none; transform-origin: 0px 0px;"></path><path d="M614.285 474V701.427H615.518V474H614.285Z" fill="#7CA355" data-svg-origin="614.2849731445312 474" transform="matrix(1,0,0,1,0,0)" style="translate: none; rotate: none; scale: none; transform-origin: 0px 0px;"></path><path d="M606.884 463H608.117V701.427H606.884V463Z" fill="#7CA355" data-svg-origin="606.8839721679688 463" transform="matrix(1,0,0,1,0,0)" style="translate: none; rotate: none; scale: none; transform-origin: 0px 0px;"></path><path d="M599.483 454V701.427H600.716V454H599.483Z" fill="#7CA355" data-svg-origin="599.4829711914062 454" transform="matrix(1,0,0,1,0,0)" style="translate: none; rotate: none; scale: none; transform-origin: 0px 0px;"></path><path d="M592.082 446H593.315V701.427H592.082V446Z" fill="#7CA355" data-svg-origin="592.0819702148438 446" transform="matrix(1,0,0,1,0,0)" style="translate: none; rotate: none; scale: none; transform-origin: 0px 0px;"></path><path d="M584.681 442V701.427H585.914V442H584.681Z" fill="#7CA355" data-svg-origin="584.6810302734375 442" transform="matrix(1,0,0,1,0,0)" style="translate: none; rotate: none; scale: none; transform-origin: 0px 0px;"></path><path d="M577.28 441H578.513V701.427H577.28V441Z" fill="#7CA355" data-svg-origin="577.280029296875 441" transform="matrix(1,0,0,1,0,0)" style="translate: none; rotate: none; scale: none; transform-origin: 0px 0px;"></path><path d="M569.879 444V701.427H571.112V444H569.879Z" fill="#7CA355" data-svg-origin="569.8790283203125 444" transform="matrix(1,0,0,1,0,0)" style="translate: none; rotate: none; scale: none; transform-origin: 0px 0px;"></path><path d="M562.478 452H563.711V701.427H562.478V452Z" fill="#7CA355" data-svg-origin="562.47802734375 452" transform="matrix(1,0,0,1,0,0)" style="translate: none; rotate: none; scale: none; transform-origin: 0px 0px;"></path><path d="M555.077 465V701.427H556.31V465H555.077Z" fill="#7CA355" data-svg-origin="555.0770263671875 465" transform="matrix(1,0,0,1,0,0)" style="translate: none; rotate: none; scale: none; transform-origin: 0px 0px;"></path><path d="M547.676 481H548.909V701.427H547.676V481Z" fill="#7CA355" data-svg-origin="547.676025390625 481" transform="matrix(1,0,0,1,0,0)" style="translate: none; rotate: none; scale: none; transform-origin: 0px 0px;"></path><path d="M540.275 500V701.427H541.508V500H540.275Z" fill="#7CA355" data-svg-origin="540.2750244140625 500" transform="matrix(1,0,0,1,0,0)" style="translate: none; rotate: none; scale: none; transform-origin: 0px 0px;"></path><path d="M532.873 520H534.107V701.427H532.873V520Z" fill="#7CA355" data-svg-origin="532.8729858398438 520" transform="matrix(1,0,0,1,0,0)" style="translate: none; rotate: none; scale: none; transform-origin: 0px 0px;"></path><path d="M525.472 541V701.427H526.706V541H525.472Z" fill="#7CA355" data-svg-origin="525.4719848632812 541" transform="matrix(1,0,0,1,0,0)" style="translate: none; rotate: none; scale: none; transform-origin: 0px 0px;"></path><path d="M518.071 562H519.305V701.427H518.071V562Z" fill="#7CA355" data-svg-origin="518.0709838867188 562" transform="matrix(1,0,0,1,0,0)" style="translate: none; rotate: none; scale: none; transform-origin: 0px 0px;"></path><path d="M510.67 581V701.427H511.904V581H510.67Z" fill="#7CA355" data-svg-origin="510.6700134277344 581" transform="matrix(1,0,0,1,0,0)" style="translate: none; rotate: none; scale: none; transform-origin: 0px 0px;"></path><path d="M436.66 591V701.427H437.894V591H436.66Z" fill="#7CA355" data-svg-origin="436.6600036621094 591" transform="matrix(1,0,0,1,0,0)" style="translate: none; rotate: none; scale: none; transform-origin: 0px 0px;"></path><path d="M429.259 581H430.493V701.427H429.259V581Z" fill="#7CA355" data-svg-origin="429.2590026855469 581" transform="matrix(1,0,0,1,0,0)" style="translate: none; rotate: none; scale: none; transform-origin: 0px 0px;"></path><path d="M421.858 560V701.427H423.092V560H421.858Z" fill="#7CA355" data-svg-origin="421.8580017089844 560" transform="matrix(1,0,0,1,0,0)" style="translate: none; rotate: none; scale: none; transform-origin: 0px 0px;"></path><path d="M414.457 544H415.691V701.427H414.457V544Z" fill="#7CA355" data-svg-origin="414.4570007324219 544" transform="matrix(1,0,0,1,0,0)" style="translate: none; rotate: none; scale: none; transform-origin: 0px 0px;"></path><path d="M407.056 528V701.427H408.29V528H407.056Z" fill="#7CA355" data-svg-origin="407.0559997558594 528" transform="matrix(1,0,0,1,0,0)" style="translate: none; rotate: none; scale: none; transform-origin: 0px 0px;"></path><path d="M399.655 513H400.889V701.427H399.655V513Z" fill="#7CA355" data-svg-origin="399.6549987792969 513" transform="matrix(1,0,0,1,0,0)" style="translate: none; rotate: none; scale: none; transform-origin: 0px 0px;"></path><path d="M392.254 498V701.427H393.488V498H392.254Z" fill="#7CA355" data-svg-origin="392.2539978027344 498" transform="matrix(1,0,0,1,0,0)" style="translate: none; rotate: none; scale: none; transform-origin: 0px 0px;"></path><path d="M384.853 485H386.087V701.427H384.853V485Z" fill="#7CA355" data-svg-origin="384.8529968261719 485" transform="matrix(1,0,0,1,0,0)" style="translate: none; rotate: none; scale: none; transform-origin: 0px 0px;"></path><path d="M377.452 474V701.427H378.686V474H377.452Z" fill="#7CA355" data-svg-origin="377.4519958496094 474" transform="matrix(1,0,0,1,0,0)" style="translate: none; rotate: none; scale: none; transform-origin: 0px 0px;"></path><path d="M370.051 465H371.285V701.427H370.051V465Z" fill="#7CA355" data-svg-origin="370.0509948730469 465" transform="matrix(1,0,0,1,0,0)" style="translate: none; rotate: none; scale: none; transform-origin: 0px 0px;"></path><path d="M362.65 458V701.427H363.884V458H362.65Z" fill="#7CA355" data-svg-origin="362.6499938964844 458" transform="matrix(1,0,0,1,0,0)" style="translate: none; rotate: none; scale: none; transform-origin: 0px 0px;"></path><path d="M355.249 455H356.483V701.427H355.249V455Z" fill="#7CA355" data-svg-origin="355.2489929199219 455" transform="matrix(1,0,0,1,0,0)" style="translate: none; rotate: none; scale: none; transform-origin: 0px 0px;"></path><path d="M347.848 458V701.427H349.081V458H347.848Z" fill="#7CA355" data-svg-origin="347.8479919433594 458" transform="matrix(1,0,0,1,0,0)" style="translate: none; rotate: none; scale: none; transform-origin: 0px 0px;"></path><path d="M340.447 464H341.68V701.427H340.447V464Z" fill="#7CA355" data-svg-origin="340.4469909667969 464" transform="matrix(1,0,0,1,0,0)" style="translate: none; rotate: none; scale: none; transform-origin: 0px 0px;"></path><path d="M333.046 472V701.427H334.279V472H333.046Z" fill="#7CA355" data-svg-origin="333.0459899902344 472" transform="matrix(1,0,0,1,0,0)" style="translate: none; rotate: none; scale: none; transform-origin: 0px 0px;"></path><path d="M325.645 483H326.878V701.427H325.645V483Z" fill="#7CA355" data-svg-origin="325.6449890136719 483" transform="matrix(1,0,0,1,0,0)" style="translate: none; rotate: none; scale: none; transform-origin: 0px 0px;"></path><path d="M318.244 495V701.427H319.477V495H318.244Z" fill="#7CA355" data-svg-origin="318.2439880371094 495" transform="matrix(1,0,0,1,0,0)" style="translate: none; rotate: none; scale: none; transform-origin: 0px 0px;"></path><path d="M310.843 507H312.076V701.427H310.843V507Z" fill="#7CA355" data-svg-origin="310.8429870605469 507" transform="matrix(1,0,0,1,0,0)" style="translate: none; rotate: none; scale: none; transform-origin: 0px 0px;"></path><path d="M303.442 519V701.427H304.675V519H303.442Z" fill="#7CA355" data-svg-origin="303.4419860839844 519" transform="matrix(1,0,0,1,0,0)" style="translate: none; rotate: none; scale: none; transform-origin: 0px 0px;"></path><path d="M296.041 529H297.274V701.427H296.041V529Z" fill="#7CA355" data-svg-origin="296.0409851074219 529" transform="matrix(1,0,0,1,0,0)" style="translate: none; rotate: none; scale: none; transform-origin: 0px 0px;"></path><path d="M288.64 537V701.427H289.873V537H288.64Z" fill="#7CA355" data-svg-origin="288.6400146484375 537" transform="matrix(1,0,0,1,0,0)" style="translate: none; rotate: none; scale: none; transform-origin: 0px 0px;"></path><path d="M281.239 542H282.472V701.427H281.239V542Z" fill="#7CA355" data-svg-origin="281.239013671875 542" transform="matrix(1,0,0,1,0,0)" style="translate: none; rotate: none; scale: none; transform-origin: 0px 0px;"></path><path d="M273.838 542V701.427H275.071V542H273.838Z" fill="#7CA355" data-svg-origin="273.8380126953125 542" transform="matrix(1,0,0,1,0,0)" style="translate: none; rotate: none; scale: none; transform-origin: 0px 0px;"></path><path d="M266.437 539H267.67V701.427H266.437V539Z" fill="#7CA355" data-svg-origin="266.43701171875 539" transform="matrix(1,0,0,1,0,0)" style="translate: none; rotate: none; scale: none; transform-origin: 0px 0px;"></path><path d="M259.036 533V701.427H260.269V533.012L259.036 533Z" fill="#7CA355" data-svg-origin="259.0360107421875 533" transform="matrix(1,0,0,1,0,0)" style="translate: none; rotate: none; scale: none; transform-origin: 0px 0px;"></path><path d="M251.635 525H252.741L252.868 525.152V701.427H251.635V525Z" fill="#7CA355" data-svg-origin="251.63499450683594 525" transform="matrix(1,0,0,1,0,0)" style="translate: none; rotate: none; scale: none; transform-origin: 0px 0px;"></path><path d="M244.234 516V701.427H245.467V516H244.234Z" fill="#7CA355" data-svg-origin="244.23399353027344 516" transform="matrix(1,0,0,1,0,0)" style="translate: none; rotate: none; scale: none; transform-origin: 0px 0px;"></path><path d="M236.833 506H238.066V701.427H236.833V506Z" fill="#7CA355" data-svg-origin="236.83299255371094 506" transform="matrix(1,0,0,1,0,0)" style="translate: none; rotate: none; scale: none; transform-origin: 0px 0px;"></path><path d="M229.432 495V701.427H230.665V495H229.432Z" fill="#7CA355" data-svg-origin="229.4320068359375 495" transform="matrix(1,0,0,1,0,0)" style="translate: none; rotate: none; scale: none; transform-origin: 0px 0px;"></path><path d="M222.031 484H223.264V701.427H222.031V484Z" fill="#7CA355" data-svg-origin="222.031005859375 484" transform="matrix(1,0,0,1,0,0)" style="translate: none; rotate: none; scale: none; transform-origin: 0px 0px;"></path><path d="M214.63 475V701.427H215.863V475H214.63Z" fill="#7CA355" data-svg-origin="214.6300048828125 475" transform="matrix(1,0,0,1,0,0)" style="translate: none; rotate: none; scale: none; transform-origin: 0px 0px;"></path><path d="M207.229 467H208.462V701.427H207.229V467Z" fill="#7CA355" data-svg-origin="207.22900390625 467" transform="matrix(1,0,0,1,0,0)" style="translate: none; rotate: none; scale: none; transform-origin: 0px 0px;"></path><path d="M199.828 463V701.427H201.061V463H199.828Z" fill="#7CA355" data-svg-origin="199.8280029296875 463" transform="matrix(1,0,0,1,0,0)" style="translate: none; rotate: none; scale: none; transform-origin: 0px 0px;"></path><path d="M192.427 458H193.66V701.427H192.427V458Z" fill="#7CA355" data-svg-origin="192.427001953125 458" transform="matrix(1,0,0,1,0,0)" style="translate: none; rotate: none; scale: none; transform-origin: 0px 0px;"></path><path d="M185.026 457V701.427H186.259V457H185.026Z" fill="#7CA355" data-svg-origin="185.0260009765625 457" transform="matrix(1,0,0,1,0,0)" style="translate: none; rotate: none; scale: none; transform-origin: 0px 0px;"></path><path d="M177.624 457H178.858V701.427H177.624V457Z" fill="#7CA355" data-svg-origin="177.62399291992188 457" transform="matrix(1,0,0,1,0,0)" style="translate: none; rotate: none; scale: none; transform-origin: 0px 0px;"></path><path d="M170.223 459V701.427H171.457V459H170.223Z" fill="#7CA355" data-svg-origin="170.22300720214844 459" transform="matrix(1,0,0,1,0,0)" style="translate: none; rotate: none; scale: none; transform-origin: 0px 0px;"></path><path d="M162.822 463H164.056V701.427H162.822V463Z" fill="#7CA355" data-svg-origin="162.82200622558594 463" transform="matrix(1,0,0,1,0,0)" style="translate: none; rotate: none; scale: none; transform-origin: 0px 0px;"></path><path d="M155.421 468V701.427H156.655V468H155.421Z" fill="#7CA355" data-svg-origin="155.42100524902344 468" transform="matrix(1,0,0,1,0,0)" style="translate: none; rotate: none; scale: none; transform-origin: 0px 0px;"></path><path d="M148.02 475H149.254V701.427H148.02V475Z" fill="#7CA355" data-svg-origin="148.02000427246094 475" transform="matrix(1,0,0,1,0,0)" style="translate: none; rotate: none; scale: none; transform-origin: 0px 0px;"></path><path d="M140.619 483V701.427H141.853V483H140.619Z" fill="#7CA355" data-svg-origin="140.61900329589844 483" transform="matrix(1,0,0,1,0,0)" style="translate: none; rotate: none; scale: none; transform-origin: 0px 0px;"></path><path d="M133.218 493H134.452V701.427H133.218V493Z" fill="#7CA355" data-svg-origin="133.21800231933594 493" transform="matrix(1,0,0,1,0,0)" style="translate: none; rotate: none; scale: none; transform-origin: 0px 0px;"></path><path d="M125.817 503V701.427H127.051V503H125.817Z" fill="#7CA355" data-svg-origin="125.81700134277344 503" transform="matrix(1,0,0,1,0,0)" style="translate: none; rotate: none; scale: none; transform-origin: 0px 0px;"></path><path d="M118.416 514H119.65V701.427H118.416V514Z" fill="#7CA355" data-svg-origin="118.41600036621094 514" transform="matrix(1,0,0,1,0,0)" style="translate: none; rotate: none; scale: none; transform-origin: 0px 0px;"></path><path d="M111.015 526V701.427H112.249V526H111.015Z" fill="#7CA355" data-svg-origin="111.01499938964844 526" transform="matrix(1,0,0,1,0,0)" style="translate: none; rotate: none; scale: none; transform-origin: 0px 0px;"></path><path d="M103.614 539H104.848V701.427H103.614V539Z" fill="#7CA355" data-svg-origin="103.61399841308594 539" transform="matrix(1,0,0,1,0,0)" style="translate: none; rotate: none; scale: none; transform-origin: 0px 0px;"></path><path d="M96.2129 552V701.427H97.4459V552H96.2129Z" fill="#7CA355" data-svg-origin="96.21289825439453 552" transform="matrix(1,0,0,1,0,0)" style="translate: none; rotate: none; scale: none; transform-origin: 0px 0px;"></path><path d="M88.812 565H90.046V701.427H88.812V565Z" fill="#7CA355" data-svg-origin="88.81199645996094 565" transform="matrix(1,0,0,1,0,0)" style="translate: none; rotate: none; scale: none; transform-origin: 0px 0px;"></path><path d="M81.5331 577L81.4111 577.213V701.427H82.6451V577H81.5341H81.5331Z" fill="#7CA355" data-svg-origin="81.41110229492188 577" transform="matrix(1,0,0,1,0,0)" style="translate: none; rotate: none; scale: none; transform-origin: 0px 0px;"></path><path d="M74.0098 590H75.2438V701.427H74.0098V590Z" fill="#7CA355" data-svg-origin="74.00980377197266 590" transform="matrix(1,0,0,1,0,0)" style="translate: none; rotate: none; scale: none; transform-origin: 0px 0px;"></path></g><defs><clipPath id="clip0_65_385"><rect width="1415" height="597" fill="white"></rect></clipPath></defs></svg>